<?xml version="1.0" encoding="UTF-8"?>
<svg xmlns="http://www.w3.org/2000/svg" xmlns:xlink="http://www.w3.org/1999/xlink" width="24px" height="24px" viewBox="0 0 24 24" version="1.1">
<g id="surface1">
<path style=" stroke:none;fill-rule:nonzero;fill:rgb(100%,100%,100%);fill-opacity:1;" d="M 15.746094 2 C 19.589844 2 22 4.390625 22 8.253906 L 22 10.574219 L 21.992188 10.679688 C 21.941406 11.050781 21.621094 11.339844 21.234375 11.339844 L 21.226562 11.339844 L 21.105469 11.332031 C 20.945312 11.304688 20.796875 11.230469 20.683594 11.113281 C 20.542969 10.96875 20.464844 10.769531 20.46875 10.566406 L 20.46875 8.253906 C 20.46875 5.210938 18.789062 3.53125 15.746094 3.53125 L 8.253906 3.53125 C 5.203125 3.53125 3.53125 5.210938 3.53125 8.253906 L 3.53125 15.753906 C 3.53125 18.796875 5.210938 20.46875 8.253906 20.46875 L 15.746094 20.46875 C 18.796875 20.46875 20.46875 18.789062 20.46875 15.753906 C 20.46875 15.332031 20.8125 14.992188 21.234375 14.992188 C 21.65625 14.992188 22 15.332031 22 15.753906 C 22 19.609375 19.609375 22 15.753906 22 L 8.253906 22 C 4.390625 22 2 19.609375 2 15.753906 L 2 8.253906 C 2 4.390625 4.390625 2 8.253906 2 Z M 7.753906 9.554688 C 7.953125 9.5625 8.148438 9.648438 8.285156 9.796875 C 8.425781 9.945312 8.496094 10.144531 8.492188 10.347656 L 8.492188 16.742188 C 8.476562 17.164062 8.121094 17.492188 7.699219 17.480469 C 7.277344 17.464844 6.945312 17.109375 6.960938 16.6875 L 6.960938 10.285156 L 6.972656 10.164062 C 7.003906 10.007812 7.085938 9.863281 7.203125 9.753906 C 7.351562 9.617188 7.550781 9.546875 7.753906 9.554688 Z M 12.035156 6.554688 C 12.457031 6.554688 12.800781 6.898438 12.800781 7.320312 L 12.800781 16.695312 C 12.800781 17.121094 12.457031 17.460938 12.035156 17.460938 C 11.613281 17.460938 11.269531 17.121094 11.269531 16.695312 L 11.269531 7.320312 C 11.269531 6.898438 11.613281 6.554688 12.035156 6.554688 Z M 16.273438 12.933594 C 16.695312 12.933594 17.039062 13.273438 17.039062 13.699219 L 17.039062 16.6875 C 17.039062 17.109375 16.695312 17.453125 16.273438 17.453125 C 15.851562 17.453125 15.507812 17.109375 15.507812 16.6875 L 15.507812 13.699219 C 15.507812 13.273438 15.851562 12.933594 16.273438 12.933594 Z M 16.273438 12.933594 "/>
</g>
</svg>
